<?xml version="1.0" encoding="utf-8"?>
<!-- Generator: Adobe Illustrator 18.1.1, SVG Export Plug-In . SVG Version: 6.00 Build 0)  -->
<svg version="1.0" id="Capa_1" xmlns="http://www.w3.org/2000/svg" xmlns:xlink="http://www.w3.org/1999/xlink" x="0px" y="0px"
	 viewBox="0 0 315.2 83" enable-background="new 0 0 315.2 83" xml:space="preserve">
<g>
	<path fill="#0C71B1" d="M50,50.3v32h15.6V52l9,15.6h10l9-15.6v30.3H109V49.5C88,51.2,68,51.4,50,50.3z"/>
	<path fill="#0C71B1" d="M26.8,54.3l-2-6.8c-5.8-0.9-11.3-2-16.3-3.2l12.5,37.8h11.6l10.8-32.5c-5.1-0.4-9.9-1-14.6-1.6L26.8,54.3z"
		/>
	<path fill="#0C71B1" d="M0,19l2.1,6.4c5.4,1.8,11.2,3.5,17.4,5L16.1,19H0z"/>
	<path fill="#0C71B1" d="M93.8,19L83.5,39.2c8.3,0.4,16.9,0.7,25.6,0.7V19H93.8z"/>
	<path fill="#0C71B1" d="M65.3,19H53.4H50H37.2L33,33.3c4.8,0.9,9.7,1.7,14.9,2.5l2.2-6.6V36c8.1,1.1,16.6,2,25.3,2.6L65.3,19z"/>
	<path fill="#0C71B1" d="M112.1,49.2v33.1h43V68.4h-27.5V57.3h23.5V44.1c-9.7,1.7-19.7,3.1-30.1,4.3C118,48.6,115,48.9,112.1,49.2z"
		/>
	<path fill="#0C71B1" d="M295.5,49.8L314,19h-17.7l-9.2,17.9L277.8,19h-15.5h-2.1h-13.4v59.7l-11.8-22.8c5-2.5,10.3-7.9,10.3-16.5
		c0-8.4-5-16.5-14.3-19.3c-9.4,4.6-20.5,9-32.9,12.9h0.5v49.4h15.6V58.7h5.2l11.2,23.5h16.2h1.9h10.3h3.4h14.4l10.4-19.5l10.4,19.5
		h17.8L295.5,49.8z M222.9,45.7h-8.8V32.9h8.8c4.3,0,6.8,3.1,6.8,6.4C229.7,42.6,227.2,45.7,222.9,45.7z M262.3,76.7V22.5l16.4,27.3
		L262.3,76.7z"/>
	<path fill="#0C71B1" d="M168.2,82.3h15.5V37c-5,1.3-10.2,2.6-15.5,3.7V82.3z"/>
	<path fill="#0C71B1" d="M199.3,19h-0.7h-43.5h-2.5h-40.5v20.8c5.3,0,10.4-0.2,15.6-0.4v-6.6h25h2.5h13.1v3
		c5.3-0.7,10.5-1.6,15.5-2.5v-0.5h2.7c17.3-3.3,32.3-7.8,44.2-12.9c-2.1-0.6-4.4-0.9-7-0.9H199.3z"/>
	<path fill="#0C71B1" d="M263.1,8.5c0,4.7-3.8,8.5-8.5,8.5c-4.7,0-8.5-3.8-8.5-8.5c0-4.7,3.8-8.5,8.5-8.5
		C259.2,0,263.1,3.8,263.1,8.5z"/>
</g>
</svg>
