<?xml version="1.0" encoding="utf-8"?>
<!-- Generator: Adobe Illustrator 18.1.1, SVG Export Plug-In . SVG Version: 6.00 Build 0)  -->
<svg version="1.0" id="Capa_1" xmlns="http://www.w3.org/2000/svg" xmlns:xlink="http://www.w3.org/1999/xlink" x="0px" y="0px"
	 viewBox="0 0 160 82.8" enable-background="new 0 0 160 82.8" xml:space="preserve">
<line fill="none" stroke="#35495E" stroke-width="2" stroke-miterlimit="10" x1="4.9" y1="69.8" x2="155.1" y2="69.8"/>
<g>
	<g>
		<path fill="#35495E" d="M110.5,50.9v17.9h-9V50.9H110.5 M112.5,48.9h-13v21.9h13V48.9L112.5,48.9z"/>
	</g>
	<g>
		<path fill="#35495E" d="M110.5,31.4v6.3h-9v-6.3H110.5 M112.5,29.4h-13v10.3h13V29.4L112.5,29.4z"/>
	</g>
	<g>
		<path fill="#35495E" d="M125.7,50.9v6.3h-9v-6.3H125.7 M127.7,48.9h-13v10.3h13V48.9L127.7,48.9z"/>
	</g>
	<g>
		<path fill="#35495E" d="M94.7,50.9v6.3h-9v-6.3H94.7 M96.7,48.9h-13v10.3h13V48.9L96.7,48.9z"/>
	</g>
	<g>
		<path fill="#35495E" d="M106,18.7l25.4,14.4v35.1h-51V33.1L106,18.7 M106,15.8L77.9,31.7v39h56v-39L106,15.8L106,15.8z"/>
	</g>
	<polyline fill="none" stroke="#35495E" stroke-width="2" stroke-miterlimit="10" points="77.9,35.7 71.4,35.7 71.4,31.5 106,11.7 
		139.9,31.5 139.9,35.7 133.9,35.7 	"/>
	<line fill="none" stroke="#35495E" stroke-miterlimit="10" x1="85.5" y1="55" x2="95" y2="55"/>
	<line fill="none" stroke="#35495E" stroke-miterlimit="10" x1="101.1" y1="35.5" x2="110.6" y2="35.5"/>
	<line fill="none" stroke="#35495E" stroke-miterlimit="10" x1="116.4" y1="55" x2="125.9" y2="55"/>
	<g>
		<g>
			<g>
				<path fill="#35495E" d="M61.3,60.4c-1-0.5-2.2-1-3.7-1.3c-1.5-0.3-2.9-0.5-4.3-0.7c-0.8-0.1-2.9-1.4-4.1-2.2
					c-0.1-0.1-3.7-2.3-7.7-3c-4-0.7-12.3,0.1-12.6,0.2L24.6,54c-0.3,0-0.5,0.3-0.4,0.6c0,0.3,0.3,0.5,0.6,0.4l4.3-0.7
					c0,0,0.1,0,0.2,0c-1.1,0.9-1.8,1.5-1.9,1.8c-0.2,0.5-0.1,1.3-0.1,1.5c0,0.2,0.2,0.4,0.5,0.4c0.1,0,5.1,0.3,10.6,0.6
					c0.1,1.4,0.2,4.5,0.1,7.6L29.9,66c0,0,0-0.1,0-0.1c0-1.9-1.6-3.5-3.5-3.5S23,64,23,65.9c0,0,0,0,0,0.1l-0.8-0.1
					c-0.3-0.2-0.9-0.7-1-1.1c-0.1-0.5-0.1-1.7-0.1-2.3c0.2-0.2,0.6-0.8,0.7-1.4c0.6-0.1,1.6-0.5,2.1-2.2c0.1-0.3-0.1-0.5-0.3-0.6
					c-0.3-0.1-0.5,0.1-0.6,0.3c-0.3,0.9-0.7,1.3-1.1,1.4c0-0.6,0.1-1.2,0.1-1.6l2.9-1.9c0.2-0.2,0.3-0.5,0.1-0.7
					c-0.2-0.2-0.5-0.3-0.7-0.1l-3.1,2c-0.1,0.1-0.2,0.2-0.2,0.4c0,0.1-0.2,1.7-0.2,2.5c0,0.5-0.5,1.2-0.7,1.4
					c-0.1,0.1-0.1,0.2-0.1,0.3c0,0.2-0.1,2,0.1,2.8c0.2,0.9,1.4,1.7,1.5,1.8c0.1,0,0.1,0.1,0.2,0.1l1.1,0.1c0.5,1.4,1.8,2.4,3.3,2.4
					c1.5,0,2.8-1,3.3-2.4l8.9,0.2c0.1,0,0.1,0,0.2,0.1c0,0,0,0,0,0c0.1,0,0.1,0,0.2,0L53,67.6c0.6,1.1,1.7,1.8,3,1.8
					c1.4,0,2.5-0.8,3.1-1.9c0.1,0,0.2,0,0.3,0c2.6,0,3.2-0.9,3.3-1c0,0,0-0.1,0.1-0.2c0,0,0.1-0.5,0.2-1.8
					C63.2,63,62.7,61.2,61.3,60.4z M26.5,68.4c-1.4,0-2.5-1.1-2.5-2.5s1.1-2.5,2.5-2.5s2.5,1.1,2.5,2.5C29,67.2,27.8,68.4,26.5,68.4
					z M28.2,57.1c0-0.2,0-0.4,0.1-0.5c0.2-0.3,1.6-1.4,2.8-2.3c1.8-0.1,4.4-0.3,6.7-0.3c0.2,1.3,0.4,2.9,0.5,3.7
					C33.8,57.3,29.6,57.1,28.2,57.1z M38.8,53.9c1,0,1.9,0.1,2.6,0.2c3.8,0.6,7.3,2.8,7.3,2.8c0.2,0.1,1,0.7,2,1.3
					c-2.6-0.2-7.1-0.4-11.4-0.6C39.2,57,39,55.1,38.8,53.9z M56.1,68.4c-1.4,0-2.5-1.1-2.5-2.5s1.1-2.5,2.5-2.5
					c1.4,0,2.5,1.1,2.5,2.5C58.6,67.2,57.4,68.4,56.1,68.4z M62.1,64.3C62,65.2,62,65.7,62,65.9c-0.2,0.1-0.8,0.5-2.5,0.5
					c0-0.2,0-0.4,0-0.6c0-1.9-1.6-3.5-3.5-3.5c-1.9,0-3.5,1.6-3.5,3.5c0,0.2,0,0.5,0.1,0.7l-13.2-0.4c0.1-3.1,0-6.2-0.1-7.6
					c6.3,0.3,13,0.7,13.5,0.8c0,0,0,0,0.1,0c0.1,0,0.1,0,0.2,0c0,0,0.1,0,0.1,0c1.3,0.2,2.8,0.4,4.2,0.7c1.4,0.3,2.5,0.7,3.4,1.2
					C61.9,61.9,62.2,63.3,62.1,64.3z"/>
				<path fill="#35495E" d="M30.5,60.4C30.5,60.4,30.5,60.4,30.5,60.4c0.3,0,0.5-0.2,0.5-0.5c0-0.3-0.2-0.5-0.5-0.5l-1.6,0
					c-0.3,0-0.5,0.2-0.5,0.5c0,0.3,0.2,0.5,0.5,0.5L30.5,60.4z"/>
				<path fill="#35495E" d="M42.7,59.9h-1.5c-0.3,0-0.5,0.2-0.5,0.5s0.2,0.5,0.5,0.5h1.5c0.3,0,0.5-0.2,0.5-0.5S42.9,59.9,42.7,59.9
					z"/>
			</g>
		</g>
		<circle fill="#35495E" cx="56.1" cy="65.9" r="1.2"/>
		<circle fill="#35495E" cx="26.5" cy="65.9" r="1.2"/>
	</g>
</g>
</svg>
