<?xml version="1.0" encoding="utf-8"?>
<!-- Generator: Adobe Illustrator 18.1.1, SVG Export Plug-In . SVG Version: 6.00 Build 0)  -->
<svg version="1.0" id="Capa_1" xmlns="http://www.w3.org/2000/svg" xmlns:xlink="http://www.w3.org/1999/xlink" x="0px" y="0px"
	 viewBox="0 0 128 57.3" enable-background="new 0 0 128 57.3" xml:space="preserve">
<g>
	<circle fill="#35495E" cx="99.5" cy="40.9" r="3"/>
	<circle fill="#35495E" cx="28.5" cy="41" r="3"/>
	<g>
		<g>
			<path fill="#35495E" d="M114.9,25.4c-0.2-0.1-0.3-0.2-0.5-0.2c0,0-16.2-3.3-21-4.3c-1.3-0.3-3.3-1.2-5.6-2.4c0,0-0.1,0-0.1-0.1
				c-2.1-1.1-4.4-2.4-6.6-3.7c-3.5-2-6.8-3.9-8.9-4.7c-5.3-2-39.9-2.5-58.9,1.4c-0.4,0.1-0.8,0.4-1,0.8C12.2,12.9,8.5,23,8.7,40.3
				c0,0.7,0.5,1.2,1.2,1.3c0.4,0,4,0.5,8.9,1c0.7,4.7,4.8,8.3,9.7,8.3c4.2,0,7.8-2.7,9.2-6.4c3.5,0.3,6.6,0.5,8.7,0.6
				c7.6,0.3,34.8,0.6,44.6,0.8c1.7,3,4.9,5,8.5,5c3.7,0,7-2.1,8.7-5.2c6-0.4,9.4-1.3,10-2.6C119.4,40.3,120.9,29.7,114.9,25.4z
				 M115.4,29.9l-2.8-0.2c-0.7-0.7-1.9-1.8-3-2.9c2,0.4,3.5,0.7,4.1,0.8C114.4,28.3,114.9,29.1,115.4,29.9z M79.8,17.1
				c2.1,1.2,4.2,2.4,6.2,3.4c0.2,0.7,0.2,1.2,0.2,1.5L71,20.7c-0.1,0-4.7-0.3-10.4-0.7c-0.3-1.7-1.1-6.2-1.5-8.5
				c6.2,0.2,10.8,0.7,12.3,1.2C73.2,13.4,76.4,15.2,79.8,17.1z M56.3,11.4c0.3,1.9,1.1,6.2,1.5,8.4c-8.7-0.6-19-1.3-21.5-1.6
				c0,0-0.1,0-0.1,0c0.3-1.9,1-4.8,1.4-6.5C44.2,11.3,50.8,11.2,56.3,11.4z M21.2,13c4.3-0.6,9-1,13.7-1.2c-0.4,1.7-1,4.2-1.3,6.1
				c-4.2-0.5-10.1-1.4-12.7-1.8L21.2,13z M12.5,23.4l2.4,0.4l-0.2,3L12,26.8C12.2,25.6,12.3,24.4,12.5,23.4z M28.4,48.3
				c-4,0-7.2-3.2-7.2-7.2s3.2-7.2,7.2-7.2s7.2,3.2,7.2,7.2C35.6,45.1,32.4,48.3,28.4,48.3z M99.5,48.3c-4,0-7.2-3.2-7.2-7.2
				s3.2-7.2,7.2-7.2s7.2,3.2,7.2,7.2C106.7,45.1,103.5,48.3,99.5,48.3z M115.8,41.9c-0.7,0.5-3.3,0.9-6.7,1.1
				c0.1-0.6,0.2-1.3,0.2-1.9c0-5.4-4.4-9.8-9.8-9.8s-9.8,4.4-9.8,9.8c0,0.8,0.1,1.5,0.3,2.2c-10.6-0.1-36.2-0.5-43.5-0.8
				c-2-0.1-4.9-0.3-8.2-0.6c0-0.3,0-0.6,0-0.9c0-5.4-4.4-9.8-9.8-9.8c-5,0-9.2,3.8-9.8,8.7c-3.3-0.4-5.9-0.7-7.3-0.9
				c0-3.5,0.2-6.8,0.4-9.6l4.3-0.2c0.7,0,1.2-0.6,1.3-1.2l0.3-5.4c0-0.7-0.4-1.3-1.1-1.4L13,20.8c0.6-3.4,1.3-5.7,1.7-6.8
				c1.3-0.2,2.6-0.5,3.9-0.7L18.1,17c-0.1,0.7,0.4,1.3,1.1,1.4c0.1,0,12.1,1.8,16.7,2.3c4.7,0.5,33.6,2.4,34.8,2.5l15.7,1.4
				c0.1,0,0.2,0,0.4,0c0.4,0,0.9-0.1,1.2-0.5c0.5-0.5,0.8-1.2,0.7-2.2c1.6,0.7,3,1.3,4.1,1.5c2.3,0.5,7.3,1.5,11.8,2.4
				c0,0,0,0,0,0.1c0.2,0.2,4.9,4.7,6.4,6c0.2,0.2,0.5,0.3,0.8,0.3l4.4,0.3C117.1,36.2,116.5,40.3,115.8,41.9z"/>
		</g>
	</g>
	<g>
		
			<rect x="43.3" y="25.9" transform="matrix(0.1965 0.9805 -0.9805 0.1965 75.4224 -37.5107)" fill="#35495E" width="34.6" height="2.7"/>
	</g>
	<path fill="#35495E" d="M68.9,26.3h-3.7c-0.7,0-1.3,0.6-1.3,1.3c0,0.7,0.6,1.3,1.3,1.3h3.7c0.7,0,1.3-0.6,1.3-1.3
		C70.2,26.9,69.6,26.3,68.9,26.3z"/>
	<g>
		<g>
			<path fill="#35495E" d="M80.5,38.2c-1.6,0-4.8,0-4.8-2.8v-6.8h3.6v2h-1.6v4.8c0,0.2,0,0.8,2.8,0.8V38.2z"/>
		</g>
		<g>
			<path fill="#35495E" d="M80.5,38.2v-2c2.8,0,2.8-0.5,2.8-0.8v-4.8h-1.6v-2h3.6v6.8C85.3,38.2,82.1,38.2,80.5,38.2z"/>
		</g>
	</g>
</g>
</svg>
