<?xml version="1.0" encoding="utf-8"?>
<!-- Generator: Adobe Illustrator 18.1.1, SVG Export Plug-In . SVG Version: 6.00 Build 0)  -->
<svg version="1.0" id="Capa_1" xmlns="http://www.w3.org/2000/svg" xmlns:xlink="http://www.w3.org/1999/xlink" x="0px" y="0px"
	 viewBox="0 0 128 100" enable-background="new 0 0 128 100" xml:space="preserve">
<g>
	<g>
		<path fill="#35495E" d="M92.2,62.6c0.8,0,1.5,0.3,2,0.8c0.5,0.5,0.8,1.3,0.8,2c0,0.8-0.3,1.5-0.8,2L77.5,84.3H19.4
			c-1.6,0-2.9-1.3-2.9-2.9c0-1.6,1.3-2.9,2.9-2.9h54.4h1.2l0.9-0.9l14.2-14.2C90.7,62.9,91.4,62.6,92.2,62.6 M92.2,59.6
			c-1.5,0-3,0.6-4.2,1.7L73.8,75.5H19.4c-3.3,0-5.9,2.6-5.9,5.9c0,3.3,2.6,5.9,5.9,5.9h59.3l17.6-17.6c2.3-2.3,2.3-6,0-8.3
			C95.2,60.2,93.7,59.6,92.2,59.6L92.2,59.6z"/>
	</g>
</g>
<line fill="none" stroke="#35495E" stroke-width="3" stroke-linecap="round" stroke-miterlimit="10" x1="86.6" y1="85.7" x2="103.9" y2="68.4"/>
<line fill="none" stroke="#35495E" stroke-width="3" stroke-linecap="round" stroke-miterlimit="10" x1="97.6" y1="75" x2="108.4" y2="85.8"/>
<g>
	<path fill="none" stroke="#35495E" stroke-width="3" stroke-linejoin="round" stroke-miterlimit="10" d="M87.4,16
		c-15.3-4.7-31.3,2.1-39,15.4l62.7,19.1C112.3,35.3,102.8,20.7,87.4,16z"/>
</g>
<line fill="none" stroke="#35495E" stroke-width="3" stroke-linejoin="round" stroke-miterlimit="10" x1="79.1" y1="40.8" x2="67.5" y2="77.7"/>
<path fill="none" stroke="#35495E" stroke-width="3" stroke-linecap="round" stroke-miterlimit="10" d="M87.4,16
	c0,0-16.3,2.8-24.3,19.9"/>
<path fill="none" stroke="#35495E" stroke-width="3" stroke-linecap="round" stroke-miterlimit="10" d="M87.4,16
	c0,0,12.4,14.8,8.2,29.7"/>
</svg>
