<?xml version="1.0" encoding="utf-8"?>
<!-- Generator: Adobe Illustrator 18.1.1, SVG Export Plug-In . SVG Version: 6.00 Build 0)  -->
<svg version="1.0" id="Capa_1" xmlns="http://www.w3.org/2000/svg" xmlns:xlink="http://www.w3.org/1999/xlink" x="0px" y="0px"
	 viewBox="0 0 128 57.3" enable-background="new 0 0 128 57.3" xml:space="preserve">
<g>
	<g>
		<g>
			<path fill="#35495E" d="M124.2,31.6c-0.5-0.8-1.7-2.8-15.6-4.7c-6.7-0.9-14.1-1.6-17.7-1.8c-7-4.6-17.1-9.6-24.8-11.1
				c-6.3-0.3-21.9-1.3-28.5,0.4c-3.4,0.9-6.1,1.4-9.9,3.3c-5.2,2.5-8.2,5.8-17.2,6.7c-0.5,0-1,0.3-1.2,0.8L3.7,36.7
				c-0.2,0.3-0.2,0.7,0,1.1l2.4,6.7c0.2,0.5,0.7,0.9,1.2,0.9c0.5,0,7.2,0.6,14,1c1.5,3.1,4.6,5.3,8.3,5.3c3.4,0,6.4-1.9,8-4.7l0.5,0
				c4.5,0,9.3,0,14.1,0c16.8,0,34,0,41-0.1c1.5,2.9,4.6,4.8,8.1,4.8c3.7,0,6.8-2.2,8.3-5.3c5.2-0.2,10.5-0.7,13.9-1.6
				c0.5-0.1,0.9-0.5,1-1C124.7,42.9,126.6,35.4,124.2,31.6z M122,33.5c-2.7-0.6-6.3-1.2-7.7-1.4l-2-1.9c5.5,1,9,2,9.5,2.8
				C121.9,33.2,121.9,33.3,122,33.5z M66,16.8c4.2,0.5,13.8,4.6,19.2,7.9c-7.2-0.4-20.4-1-30.9-1.5c-0.2-1.4-1-5.2-1.4-7.2
				C54.6,16,61.7,16.3,66,16.8z M38.2,17.1c4-0.9,7.6-1.3,11.8-1.1c0.5,2.1,1.2,5.7,1.5,7.1c-6.5-0.3-11.5-0.6-12.2-0.6
				c-0.9,0-3.5-3.2-4.9-4.3C35.6,17.8,36.9,17.4,38.2,17.1z M11.3,27c1.9-0.1,3.7-0.4,5.5-0.7l0.5,1l-4.8,3l-2.7-0.1L11.3,27z
				 M29.6,48.9c-3.5,0-6.3-2.8-6.3-6.3s2.8-6.3,6.3-6.3s6.3,2.8,6.3,6.3S33.1,48.9,29.6,48.9z M101.3,48.9c-3.5,0-6.3-2.8-6.3-6.3
				s2.8-6.3,6.3-6.3s6.3,2.8,6.3,6.3S104.8,48.9,101.3,48.9z M110.4,43.5c0-0.3,0.1-0.7,0.1-1c0-5-4.1-9.2-9.2-9.2s-9.2,4.1-9.2,9.2
				c0,0.5,0.1,1,0.1,1.5c-11.1,0.1-41.8,0.1-53.7,0.1c0.1-0.5,0.2-1.1,0.2-1.6c0-5-4.1-9.2-9.2-9.2s-9.2,4.1-9.2,9.2
				c0,0.3,0,0.7,0.1,1c-5.2-0.3-10.1-0.7-12.1-0.9l-1.9-5.3l2-4.4l4.3,0.2c0,0,0.1,0,0.1,0c0.3,0,0.5-0.1,0.8-0.2l6.2-4
				c0.6-0.4,0.8-1.2,0.5-1.8l-0.8-1.5c3.8-2.6,10.7-6,11.6-6.4c1.4,1.3,5.5,5.9,7.9,6c2.4,0.1,50.6,2.5,51.2,2.5c0,0,0,0,0,0
				c6.4,0.3,12.2,0.9,17.1,1.6l5.3,5c0.2,0.2,0.5,0.3,0.8,0.4c1.9,0.2,6.8,1,9.1,1.7c0,2-0.3,4.3-0.6,5.7
				C119,43,114.7,43.3,110.4,43.5z"/>
		</g>
	</g>
	<circle fill="#35495E" cx="29.6" cy="42.5" r="3"/>
	<circle fill="#35495E" cx="101.3" cy="42.5" r="3"/>
	<g>
		<polygon fill="#35495E" points="63.6,15.8 61.1,8.7 46.1,8.7 43,15.7 40.3,14.5 44.2,5.7 63.2,5.7 66.4,14.8 		"/>
	</g>
	<rect x="45" y="31.1" fill="#35495E" width="3.6" height="3.6"/>
	<rect x="48.6" y="34.7" fill="#35495E" width="3.6" height="3.6"/>
	<rect x="52.2" y="31.1" fill="#35495E" width="3.6" height="3.6"/>
	<rect x="55.8" y="34.7" fill="#35495E" width="3.6" height="3.6"/>
	<rect x="59.4" y="31.1" fill="#35495E" width="3.6" height="3.6"/>
	<rect x="63" y="34.7" fill="#35495E" width="3.6" height="3.6"/>
	<rect x="66.6" y="31.1" fill="#35495E" width="3.6" height="3.6"/>
	<rect x="70.2" y="34.7" fill="#35495E" width="3.6" height="3.6"/>
</g>
</svg>
