<?xml version="1.0" encoding="utf-8"?>
<!-- Generator: Adobe Illustrator 18.1.1, SVG Export Plug-In . SVG Version: 6.00 Build 0)  -->
<svg version="1.0" id="Capa_1" xmlns="http://www.w3.org/2000/svg" xmlns:xlink="http://www.w3.org/1999/xlink" x="0px" y="0px"
	 viewBox="0 0 128 57.3" enable-background="new 0 0 128 57.3" xml:space="preserve">
<g>
	<g>
		<g>
			<path fill="#35495E" d="M114.8,28.8c-2.4-1.4-5.6-2.5-9.3-3.3c-3.7-0.8-7.4-1.3-10.8-1.8c-2-0.3-7.4-3.6-10.3-5.7
				c-0.4-0.2-9.4-5.8-19.5-7.5c-10-1.7-31,0.3-32,0.4l-10.9,1.7c-0.7,0.1-1.2,0.7-1.1,1.4c0.1,0.7,0.8,1.2,1.4,1.1l10.8-1.7
				c0,0,0.2,0,0.5,0c-2.9,2.3-4.5,3.8-4.8,4.5c-0.5,1.3-0.3,3.3-0.3,3.7c0.1,0.6,0.6,1.1,1.2,1.1c0.3,0,12.9,0.7,26.8,1.4
				c0.2,3.4,0.6,11.5,0.3,19.3L35.5,43c0-0.1,0-0.2,0-0.3c0-4.9-4-8.8-8.8-8.8s-8.8,4-8.8,8.8c0,0.1,0,0.1,0,0.2L16,42.7
				c-0.9-0.6-2.3-1.8-2.6-2.9c-0.4-1.3-0.3-4.4-0.3-5.9c0.5-0.6,1.4-2,1.8-3.5c1.5-0.3,4-1.4,5.4-5.6c0.2-0.7-0.2-1.4-0.8-1.6
				c-0.7-0.2-1.4,0.2-1.6,0.8c-0.7,2.3-1.8,3.3-2.7,3.7c0.1-1.5,0.3-3.2,0.4-4l7.3-4.8c0.6-0.4,0.7-1.2,0.4-1.7
				c-0.4-0.6-1.2-0.7-1.7-0.4l-7.8,5.1c-0.3,0.2-0.5,0.6-0.6,0.9c0,0.2-0.4,4.4-0.5,6.4c-0.1,1.3-1.2,2.9-1.7,3.4
				c-0.2,0.2-0.3,0.5-0.3,0.8c0,0.5-0.2,5,0.4,7.1c0.6,2.4,3.6,4.3,3.9,4.5c0.2,0.1,0.4,0.2,0.6,0.2l2.9,0.3
				c1.2,3.5,4.5,6.1,8.4,6.1c3.9,0,7.2-2.5,8.4-6l22.6,0.6c0.1,0.1,0.3,0.1,0.5,0.1c0,0,0,0,0.1,0c0.2,0,0.3,0,0.5-0.1L94,47
				c1.5,2.7,4.4,4.5,7.7,4.5c3.4,0,6.4-2,7.9-4.9c0.3,0,0.6,0,0.9,0c6.6,0,8.2-2.2,8.5-2.6c0.1-0.1,0.1-0.3,0.1-0.4
				c0,0,0.2-1.3,0.4-4.7C119.6,35.4,118.5,30.9,114.8,28.8z M26.7,49c-3.5,0-6.3-2.8-6.3-6.3c0-3.5,2.8-6.3,6.3-6.3s6.3,2.8,6.3,6.3
				C33,46.2,30.2,49,26.7,49z M31.2,20.3c0-0.6,0-1.1,0.1-1.4c0.4-0.7,4-3.6,7-5.9c4.4-0.3,11.1-0.7,17.1-0.6c0.4,3.2,1,7.5,1.2,9.3
				C45.2,21.1,34.7,20.5,31.2,20.3z M58,12.4c2.5,0.1,4.7,0.3,6.6,0.6c9.6,1.6,18.4,7.1,18.5,7.1c0.4,0.3,2.6,1.8,5,3.2
				c-6.7-0.4-18-1-28.9-1.6C59,20.1,58.4,15.5,58,12.4z M101.6,49c-3.5,0-6.3-2.8-6.3-6.3c0-3.5,2.8-6.3,6.3-6.3s6.3,2.8,6.3,6.3
				C107.9,46.2,105.1,49,101.6,49z M116.9,38.8c-0.1,2.2-0.3,3.5-0.4,4c-0.4,0.4-2,1.3-6.2,1.3c0.1-0.5,0.1-0.9,0.1-1.4
				c0-4.9-4-8.8-8.8-8.8c-4.9,0-8.8,4-8.8,8.8c0,0.6,0.1,1.2,0.2,1.8l-33.4-0.9c0.4-7.8,0-15.7-0.2-19.3c16,0.8,32.8,1.8,34.3,1.9
				c0,0,0.1,0,0.1,0c0.1,0,0.3,0,0.4-0.1c0.1,0,0.2,0,0.3,0.1c3.3,0.5,7,1,10.6,1.8c3.5,0.8,6.4,1.8,8.6,3
				C116.3,32.6,117.1,36.2,116.9,38.8z"/>
			<path fill="#35495E" d="M36.9,28.8C36.9,28.8,36.9,28.8,36.9,28.8c0.7,0,1.3-0.5,1.3-1.2c0-0.7-0.5-1.3-1.2-1.3l-4.1-0.1
				c-0.7,0-1.3,0.5-1.3,1.2c0,0.7,0.5,1.3,1.2,1.3L36.9,28.8z"/>
			<path fill="#35495E" d="M67.7,27.6H64c-0.7,0-1.3,0.6-1.3,1.3c0,0.7,0.6,1.3,1.3,1.3h3.7c0.7,0,1.3-0.6,1.3-1.3
				C68.9,28.1,68.4,27.6,67.7,27.6z"/>
		</g>
	</g>
	<circle fill="#35495E" cx="101.6" cy="42.7" r="3"/>
	<circle fill="#35495E" cx="26.7" cy="42.7" r="3"/>
</g>
</svg>
