<?xml version="1.0" encoding="utf-8"?>
<!-- Generator: Adobe Illustrator 18.1.1, SVG Export Plug-In . SVG Version: 6.00 Build 0)  -->
<svg version="1.0" id="Capa_1" xmlns="http://www.w3.org/2000/svg" xmlns:xlink="http://www.w3.org/1999/xlink" x="0px" y="0px"
	 viewBox="0 0 128 57.3" enable-background="new 0 0 128 57.3" xml:space="preserve">
<g>
	<path fill="#35495E" d="M103.6,52c5,0,9.1-4,9.3-9h8.6c0.6,0,1.1-0.4,1.3-1l2.2-7.5c0.1-0.4,0-0.9-0.2-1.2
		c-0.3-0.3-0.7-0.6-1.1-0.6h-0.9c0.1-3.9-1.3-7.8-1.4-8c-0.2-0.4-0.5-0.7-0.9-0.9c-2.8-0.8-23.3-3.9-26.3-4.3
		c-1.9-1.4-11.9-8.9-15.7-10.3c-4-1.5-16.2-1.5-17.6-1.5c-0.7,0-1.2,0.5-1.3,1.1l-2.1,10.6L9.5,19.3c-0.4,0-0.7,0.1-1,0.4
		c-0.3,0.3-0.4,0.6-0.4,1V30c0,0,0,0,0,0v9.6c0,0.7,0.5,1.3,1.2,1.4l13.4,0.3c-0.1,0.5-0.1,0.9-0.1,1.4c0,5.1,4.2,9.3,9.3,9.3
		s9.3-4.2,9.3-9.3c0-0.3,0-0.5,0-0.8l2.9,0c0.1,0.1,0.3,0.1,0.5,0.1c0.1,0,0.2,0,0.3,0c0,0,0,0,0.1,0L94.4,42c0,0.2,0,0.5,0,0.7
		C94.3,47.8,98.5,52,103.6,52z M10.8,22.1l2.7,0.1v4.7L10.8,28V22.1z M31.8,49.2c-3.6,0-6.5-2.9-6.5-6.5c0-3.6,2.9-6.5,6.5-6.5
		s6.5,2.9,6.5,6.5S35.4,49.2,31.8,49.2z M40.4,39.2c-1.4-3.4-4.7-5.7-8.6-5.7c-3.6,0-6.8,2.1-8.3,5.2l-1.9-0.2l1.6-7.3h17.4l2,8.1
		L40.4,39.2z M57,39.2l-11.5,0L43,29.4c-0.2-0.6-0.7-1-1.3-1H22.1c-0.6,0-1.2,0.5-1.3,1.1l-1.9,8.7l-8,0.3v-7.5l4.6-1.9
		c0.5-0.2,0.8-0.7,0.8-1.3v-5.5l40.7,0V39.2z M103.6,49.2c-3.6,0-6.5-2.9-6.5-6.5c0-3.6,2.9-6.5,6.5-6.5c3.6,0,6.5,2.9,6.5,6.5
		C110.1,46.3,107.2,49.2,103.6,49.2z M121.9,35.5l-1.4,4.7h-3.9l-1.2-4.7H121.9z M91.5,29.4l-2.2,9.8c0,0,0,0,0,0l-29.7,0V21.9
		L62,10.5c0.7,0,1.5,0,2.3,0v10c0,0.8,0.6,1.4,1.4,1.4l20.1,0.3c0,0,0,0,0,0c0.7,0,1.4-0.6,1.4-1.4c0-0.8-0.6-1.4-1.4-1.4l-18.8-0.3
		v-8.5c4,0.1,8.6,0.5,10.4,1.2C80.5,13,89.5,19.6,92.7,22c0.2,0.1,0.4,0.2,0.6,0.3c7.5,1.1,21.8,3.3,25.6,4.2c0.4,1.2,1,3.8,1,6.3
		h-5.4l-0.8-3.3c-0.2-0.6-0.7-1-1.3-1H92.9C92.2,28.3,91.7,28.8,91.5,29.4z M92.2,39.3l1.8-8.2h17.4l2.3,9.1h-1.2
		c-1.1-3.9-4.7-6.7-8.9-6.7c-3.9,0-7.2,2.4-8.6,5.8L92.2,39.3z"/>
	<path fill="#35495E" d="M69.4,24.9h-3.6c-0.8,0-1.4,0.6-1.4,1.4s0.6,1.4,1.4,1.4h3.6c0.8,0,1.4-0.6,1.4-1.4S70.1,24.9,69.4,24.9z"
		/>
</g>
<circle fill="#35495E" cx="103.8" cy="42.7" r="3"/>
<circle fill="#35495E" cx="31.8" cy="42.7" r="3"/>
</svg>
