<?xml version="1.0" encoding="utf-8"?>
<!-- Generator: Adobe Illustrator 18.1.1, SVG Export Plug-In . SVG Version: 6.00 Build 0)  -->
<svg version="1.0" id="Capa_1" xmlns="http://www.w3.org/2000/svg" xmlns:xlink="http://www.w3.org/1999/xlink" x="0px" y="0px"
	 viewBox="0 0 160 82.8" enable-background="new 0 0 160 82.8" xml:space="preserve">
<line fill="none" stroke="#35495E" stroke-width="2" stroke-miterlimit="10" x1="4.9" y1="69.8" x2="155.1" y2="69.8"/>
<g>
	<g>
		<path fill="#35495E" d="M101.9,50.8v17.9H85.1V50.8H101.9 M103.9,48.8H83.1v21.9h20.9V48.8L103.9,48.8z"/>
	</g>
	<g>
		<path fill="#35495E" d="M128.3,50.8v6.9h-16.9v-6.9H128.3 M130.3,48.8h-20.9v10.9h20.9V48.8L130.3,48.8z"/>
	</g>
	<g>
		<path fill="#35495E" d="M138.1,39.5v28.6H73.3V39.5H138.1 M140.6,37H70.8v33.6h69.8V37L140.6,37z"/>
	</g>
	<g>
		<path fill="#35495E" d="M135.8,21.8c1.3,0,2.3,1.1,2.3,2.3v1.3H73.3v-1.3c0-1.3,1.1-2.3,2.3-2.3H135.8 M135.8,19.3H75.7
			c-2.7,0-4.8,2.2-4.8,4.8V28h69.8v-3.8C140.6,21.5,138.5,19.3,135.8,19.3L135.8,19.3z"/>
	</g>
	<g>
		<g>
			<g>
				<path fill="#35495E" d="M57.5,60.4c-1-0.5-2.2-1-3.7-1.3c-1.5-0.3-2.9-0.5-4.3-0.7c-0.8-0.1-2.9-1.4-4.1-2.2
					c-0.1-0.1-3.7-2.3-7.7-3c-4-0.7-12.3,0.1-12.6,0.2L20.9,54c-0.3,0-0.5,0.3-0.4,0.6c0,0.3,0.3,0.5,0.6,0.4l4.3-0.7
					c0,0,0.1,0,0.2,0c-1.1,0.9-1.8,1.5-1.9,1.8c-0.2,0.5-0.1,1.3-0.1,1.5c0,0.2,0.2,0.4,0.5,0.4c0.1,0,5.1,0.3,10.6,0.6
					c0.1,1.4,0.2,4.5,0.1,7.6L26.2,66c0,0,0-0.1,0-0.1c0-1.9-1.6-3.5-3.5-3.5s-3.5,1.6-3.5,3.5c0,0,0,0,0,0.1l-0.8-0.1
					c-0.3-0.2-0.9-0.7-1-1.1c-0.1-0.5-0.1-1.7-0.1-2.3c0.2-0.2,0.6-0.8,0.7-1.4c0.6-0.1,1.6-0.5,2.1-2.2c0.1-0.3-0.1-0.5-0.3-0.6
					c-0.3-0.1-0.5,0.1-0.6,0.3c-0.3,0.9-0.7,1.3-1.1,1.4c0-0.6,0.1-1.2,0.1-1.6l2.9-1.9c0.2-0.2,0.3-0.5,0.1-0.7
					c-0.2-0.2-0.5-0.3-0.7-0.1l-3.1,2c-0.1,0.1-0.2,0.2-0.2,0.4c0,0.1-0.2,1.7-0.2,2.5c0,0.5-0.5,1.2-0.7,1.4
					c-0.1,0.1-0.1,0.2-0.1,0.3c0,0.2-0.1,2,0.1,2.8c0.2,0.9,1.4,1.7,1.5,1.8c0.1,0,0.1,0.1,0.2,0.1l1.2,0.1c0.5,1.4,1.8,2.4,3.3,2.4
					c1.5,0,2.8-1,3.3-2.4l8.9,0.2c0.1,0,0.1,0,0.2,0.1c0,0,0,0,0,0c0.1,0,0.1,0,0.2,0l13.9,0.4c0.6,1.1,1.7,1.8,3,1.8
					c1.4,0,2.5-0.8,3.1-1.9c0.1,0,0.2,0,0.3,0c2.6,0,3.2-0.9,3.3-1c0,0,0-0.1,0.1-0.2c0,0,0.1-0.5,0.2-1.8
					C59.4,63,59,61.2,57.5,60.4z M22.7,68.4c-1.4,0-2.5-1.1-2.5-2.5s1.1-2.5,2.5-2.5c1.4,0,2.5,1.1,2.5,2.5
					C25.2,67.2,24.1,68.4,22.7,68.4z M24.5,57.1c0-0.2,0-0.4,0.1-0.5c0.2-0.3,1.6-1.4,2.8-2.3c1.8-0.1,4.4-0.3,6.7-0.3
					c0.2,1.3,0.4,2.9,0.5,3.7C30,57.3,25.9,57.1,24.5,57.1z M35.1,53.9c1,0,1.9,0.1,2.6,0.2C41.5,54.8,45,57,45,57
					c0.2,0.1,1,0.7,2,1.3c-2.6-0.2-7.1-0.4-11.4-0.6C35.5,57,35.2,55.1,35.1,53.9z M52.3,68.4c-1.4,0-2.5-1.1-2.5-2.5
					s1.1-2.5,2.5-2.5c1.4,0,2.5,1.1,2.5,2.5C54.8,67.2,53.7,68.4,52.3,68.4z M58.4,64.3c-0.1,0.9-0.1,1.4-0.1,1.6
					c-0.2,0.1-0.8,0.5-2.5,0.5c0-0.2,0-0.4,0-0.6c0-1.9-1.6-3.5-3.5-3.5c-1.9,0-3.5,1.6-3.5,3.5c0,0.2,0,0.5,0.1,0.7l-13.2-0.4
					c0.1-3.1,0-6.2-0.1-7.6c6.3,0.3,13,0.7,13.5,0.8c0,0,0,0,0.1,0c0.1,0,0.1,0,0.2,0c0,0,0.1,0,0.1,0c1.3,0.2,2.8,0.4,4.2,0.7
					c1.4,0.3,2.5,0.7,3.4,1.2C58.1,61.9,58.4,63.3,58.4,64.3z"/>
				<path fill="#35495E" d="M26.8,60.4C26.8,60.4,26.8,60.4,26.8,60.4c0.3,0,0.5-0.2,0.5-0.5c0-0.3-0.2-0.5-0.5-0.5l-1.6,0
					c-0.3,0-0.5,0.2-0.5,0.5c0,0.3,0.2,0.5,0.5,0.5L26.8,60.4z"/>
				<path fill="#35495E" d="M38.9,59.9h-1.5c-0.3,0-0.5,0.2-0.5,0.5s0.2,0.5,0.5,0.5h1.5c0.3,0,0.5-0.2,0.5-0.5S39.2,59.9,38.9,59.9
					z"/>
			</g>
		</g>
		<circle fill="#35495E" cx="52.3" cy="65.9" r="1.2"/>
		<circle fill="#35495E" cx="22.7" cy="65.9" r="1.2"/>
	</g>
	<line fill="none" stroke="#35495E" stroke-width="2" stroke-miterlimit="10" x1="93.5" y1="50.1" x2="93.5" y2="69.4"/>
	<g>
		<path fill="#35495E" d="M143.6,28V37H67.8V28H143.6 M146.1,25.5h-2.5H67.8h-2.5V28V37v2.5h2.5h75.8h2.5V37V28V25.5L146.1,25.5z"/>
	</g>
</g>
</svg>
