<?xml version="1.0" encoding="utf-8"?>
<!-- Generator: Adobe Illustrator 18.1.1, SVG Export Plug-In . SVG Version: 6.00 Build 0)  -->
<svg version="1.0" id="Capa_1" xmlns="http://www.w3.org/2000/svg" xmlns:xlink="http://www.w3.org/1999/xlink" x="0px" y="0px"
	 viewBox="0 0 128 100" enable-background="new 0 0 128 100" xml:space="preserve">
<g>
	<g>
		<path fill="#35495E" d="M101.1,27.1c1.9,0,3.4,1.5,3.4,3.4v50.4c0,1.9-1.5,3.4-3.4,3.4H27.9c-1.9,0-3.4-1.5-3.4-3.4V30.4
			c0-1.9,1.5-3.4,3.4-3.4H101.1 M101.1,24.1H27.9c-3.5,0-6.4,2.9-6.4,6.4v50.4c0,3.5,2.9,6.4,6.4,6.4h73.2c3.5,0,6.4-2.9,6.4-6.4
			V30.4C107.5,26.9,104.6,24.1,101.1,24.1L101.1,24.1z"/>
	</g>
	<line fill="none" stroke="#35495E" stroke-width="3" stroke-miterlimit="10" x1="23" y1="52.8" x2="106" y2="52.8"/>
	<g>
		<path fill="#35495E" d="M72.4,15.8c2.1,0,3.8,1.7,3.8,3.8V24H52.7v-4.4c0-2.1,1.7-3.8,3.8-3.8H72.4 M72.4,12.8H56.6
			c-3.8,0-6.8,3.1-6.8,6.8V27h29.5v-7.4C79.3,15.9,76.2,12.8,72.4,12.8L72.4,12.8z"/>
	</g>
	<g>
		<path fill="#35495E" d="M69.1,54.3v7h-9.3v-7H69.1 M69.9,51.3H59.1c-1.2,0-2.2,1-2.2,2.2v8.6c0,1.2,1,2.2,2.2,2.2h10.9
			c1.2,0,2.2-1,2.2-2.2v-8.6C72.1,52.3,71.1,51.3,69.9,51.3L69.9,51.3z"/>
	</g>
	<g>
		<path fill="#35495E" d="M69.1,47.8v3.5h-9.3v-3.5H69.1 M69.9,44.8H59.1c-1.2,0-2.2,1-2.2,2.2v5.1c0,1.2,1,2.2,2.2,2.2h10.9
			c1.2,0,2.2-1,2.2-2.2V47C72.1,45.8,71.1,44.8,69.9,44.8L69.9,44.8z"/>
	</g>
	
		<line fill="none" stroke="#35495E" stroke-width="3" stroke-linecap="round" stroke-miterlimit="10" x1="41" y1="27" x2="41" y2="43.1"/>
	
		<line fill="none" stroke="#35495E" stroke-width="3" stroke-linecap="round" stroke-miterlimit="10" x1="88" y1="27" x2="88" y2="43.1"/>
</g>
</svg>
