<?xml version="1.0" encoding="utf-8"?>
<!-- Generator: Adobe Illustrator 18.1.1, SVG Export Plug-In . SVG Version: 6.00 Build 0)  -->
<svg version="1.0" id="Capa_1" xmlns="http://www.w3.org/2000/svg" xmlns:xlink="http://www.w3.org/1999/xlink" x="0px" y="0px"
	 viewBox="0 0 128 100" enable-background="new 0 0 128 100" xml:space="preserve">
<g>
	<path fill="#35495E" d="M109.1,79.8v4.4H18.9v-4.4H109.1 M112.1,76.8H15.9v10.4h96.3V76.8L112.1,76.8z"/>
</g>
<g>
	<path fill="#35495E" d="M58.8,55.8v20.9H39.1V55.8H58.8 M61.8,52.8H36.1v26.9h25.7V52.8L61.8,52.8z"/>
</g>
<g>
	<path fill="#35495E" d="M91.3,55.8v7.5H71.6v-7.5H91.3 M94.3,52.8H68.6v13.5h25.7V52.8L94.3,52.8z"/>
</g>
<g>
	<path fill="#35495E" d="M104,31.6v45H24v-45H104 M107,28.6H21v51h86V28.6L107,28.6z"/>
</g>
<g>
	<path fill="#35495E" d="M100.6,15.8c1.9,0,3.4,1.5,3.4,3.4v9.5H24v-9.5c0-1.9,1.5-3.4,3.4-3.4H100.6 M100.6,12.8H27.4
		c-3.5,0-6.4,2.9-6.4,6.4v12.5h86V19.2C107,15.7,104.1,12.8,100.6,12.8L100.6,12.8z"/>
</g>
<g>
	<path fill="#35495E" d="M104,31.2v0.1c0,4.3-3.6,7.9-7.9,7.9h-0.2c-4.3,0-7.9-3.6-7.9-7.9c0,4.3-3.6,7.9-7.9,7.9h-0.2
		c-4.3,0-7.9-3.6-7.9-7.9c0,4.3-3.6,7.9-7.9,7.9h-0.2c-4.3,0-7.9-3.6-7.9-7.9v-0.1c0,4.3-3.6,7.9-7.9,7.9h-0.2
		c-4.3,0-7.9-3.6-7.9-7.9c0,4.3-3.6,7.9-7.9,7.9h-0.2c-4.3,0-7.9-3.6-7.9-7.9v-0.1H104 M106,29.2h-2H24h-2v2v0.1
		c0,5.5,4.4,9.9,9.9,9.9h0.2c3.2,0,6.1-1.5,7.9-3.9c1.8,2.4,4.7,3.9,7.9,3.9h0.2c3.2,0,6.1-1.5,7.9-3.9c1.8,2.4,4.7,4,7.9,4h0.2
		c3.2,0,6.1-1.5,7.9-3.9c1.8,2.4,4.7,3.9,7.9,3.9h0.2c3.2,0,6.1-1.5,7.9-3.9c1.8,2.4,4.7,3.9,7.9,3.9h0.2c5.5,0,9.9-4.4,9.9-9.9
		v-0.1V29.2L106,29.2z"/>
</g>
</svg>
