<?xml version="1.0" encoding="utf-8"?>
<!-- Generator: Adobe Illustrator 18.1.1, SVG Export Plug-In . SVG Version: 6.00 Build 0)  -->
<svg version="1.0" id="Capa_1" xmlns="http://www.w3.org/2000/svg" xmlns:xlink="http://www.w3.org/1999/xlink" x="0px" y="0px"
	 viewBox="0 181 792 255" enable-background="new 0 181 792 255" xml:space="preserve">
<g>
	<g>
		<path d="M129.1,356.1c-17.6,0-32.7,14.2-33.6,32.1c-0.9,17.6,12.8,32.1,30.7,32.1c17.6,0,32.7-14.2,33.6-32.1
			C160.7,370.6,146.7,356.1,129.1,356.1z M127.1,399.6c-6.3,0-11.4-5.1-11.1-11.4c0.3-6.3,5.7-11.4,11.9-11.4
			c6.3,0,11.4,5.1,11.1,11.4C138.8,394.4,133.7,399.6,127.1,399.6z"/>
	</g>
	<path fill="#FFFFFF" d="M262.5,373.7c0-0.3,0-0.3,0-0.6C262.5,373.4,262.5,373.7,262.5,373.7c-0.3,0-0.3,0.3,0,0.3
		C262.5,374,262.5,374,262.5,373.7z"/>
	<path fill="#FFFFFF" d="M348.7,370v0.3c0-0.3,0-0.3,0-0.6v-0.3C348.7,369.7,348.7,369.7,348.7,370z"/>
	<g>
		<path d="M307.4,353.8c-17.6,0-32.7,14.2-33.6,32.1c-0.9,17.6,12.8,31.9,30.7,31.9s32.7-14.2,33.6-32.1
			C338.7,368,325,353.8,307.4,353.8z M305.4,397.3c-6.3,0-11.4-5.1-11.1-11.4c0.3-6.3,5.7-11.4,11.9-11.4c6.3,0,11.4,5.1,11.1,11.4
			C317.1,392.2,311.7,397.3,305.4,397.3z"/>
	</g>
	<path fill="none" d="M299.2,340.1c0.3,0,0.6,0,0.9-0.3C299.7,340.1,299.5,340.1,299.2,340.1L299.2,340.1z"/>
	<path fill="none" d="M348.7,370v0.3c0-0.3,0-0.3,0-0.6v-0.3C348.7,369.7,348.7,369.7,348.7,370z"/>
	<path fill="#042EC6" d="M305.1,319.7c-3.4,0-6.5,0.3-9.7,1.1l-4.8-27.6l-172.1,29.6l0,0c-20.2,4-35.3,21.9-35.3,43.2
		c0,2.6,0.3,5.1,0.6,7.7c5.1-15.1,18.2-26.4,34.1-29.6c1.4-0.3,2.8-0.6,4.3-0.9v0.3c1.4,0,2.6-0.3,4-0.3c24.7,0,44.9,20.2,44.9,44.9
		c0,0.6,0,1.1,0,1.4l90.7-14.2c0-0.6,0-0.3,0,0c1.4-6,4.6-12.8,8-17.6c6.8-9.4,17.3-15.9,29.3-17.6l0,0c0.3,0,0.6,0,0.9,0
		c2-0.3,4-0.3,6-0.3c19.6,0,36.4,12.8,42.4,30.4c0-0.3,0-0.3,0-0.6v0.3c0.3-2,0.6-4,0.6-6C349.2,339.3,329.6,319.7,305.1,319.7z"/>
	<g>
		<path fill="#042EC6" d="M281.8,243.4c-0.9-4.3-3.4-8-7.1-10l-74.2-38.7c-2.8-1.4-6-2-8.8-1.4l-14.8,2.6c-2.8,0.6-5.7,2-7.7,4.3
			l-50.9,55.5c23.6-2.8,47.5-8.2,61.7-11.9c-0.6-6.8,4.3-13.4,11.1-14.5c7.4-1.4,14.5,3.7,15.6,11.1c1.1,7.4-3.7,14.5-11.1,15.6
			c-5.1,0.9-10.2-1.1-13.1-5.1c-9.1,2.6-40.7,10.5-71.7,13.4c-1.7,2.8-2.3,6-1.7,9.4l8,41.8l172.3-29.9L281.8,243.4z"/>
	</g>
	<g>
		<path fill="none" d="M33.3,218.4c-4.3,2.6-6.5,6-7.4,10.5c-0.9,6,0.6,10.8,4.6,14.2c21,18.8,102.1,4.3,140.5-5.1
			c-28.4-9.4-79.1-24.7-112.6-24.7C48.1,213.3,39.2,215,33.3,218.4z"/>
		<path fill="#042EC6" d="M182.9,234.1c-33-11.4-122.6-40.1-153.3-22.2c-6.3,3.7-10,9.1-10.8,15.9c-1.1,8.5,1.1,15.6,7.1,21
			c9.1,8.2,26.4,11.1,46.1,11.1c42.9,0,97.8-13.7,107.8-16.2c0-0.3,0-0.6,0-0.9C179.7,239.5,180.9,236.3,182.9,234.1z M30.7,243.2
			c-4-3.7-5.4-8.2-4.6-14.2c0.6-4.6,3.1-8,7.4-10.5c6-3.4,14.8-4.8,25-4.8c33.6,0,84.2,15.1,112.6,24.7
			C132.8,247.4,51.8,261.9,30.7,243.2z"/>
	</g>
</g>
<g>
	<g>
		<path fill="#042EC6" d="M388.5,296.3c0-2.8,1.1-5.4,3.1-7.4c2-2,4.6-3.1,7.4-3.1c2.8,0,5.4,1.1,7.4,3.1c2,2,3.1,4.6,3.1,7.4v42.9
			c0,2.8,0.6,5.4,1.4,8c1.1,2.6,2.6,4.6,4.3,6.5c1.7,1.7,4,3.4,6.3,4.3c2.6,1.1,5.1,1.7,8,1.7c2.6,0,5.4-0.6,7.7-1.7
			c2.6-1.1,4.6-2.6,6.5-4.3c1.7-1.7,3.4-4,4.3-6.5c1.1-2.6,1.7-5.1,1.7-8v-42.7c0-3.1,1.1-5.7,3.1-7.7c2-2,4.6-3.1,7.7-3.1
			c3.1,0,5.7,1.1,7.7,3.1s3.1,4.6,3.1,7.7v42.9c0,2.8,0.6,5.7,1.4,8.2c1.1,2.6,2.6,4.6,4.3,6.5c1.7,1.7,4,3.1,6.3,4.3
			c2.3,0.9,4.8,1.4,7.7,1.4c2.6,0,5.1-0.6,7.7-1.7c2.6-1.1,4.6-2.6,6.3-4.3c1.7-1.7,3.4-4,4.3-6.5c1.1-2.6,1.7-5.1,1.7-8v-42.9
			c0-3.1,1.1-5.7,3.1-7.7c2-2,4.6-3.1,7.4-3.1c3.1,0,5.7,1.1,7.7,3.1s3.1,4.6,3.1,7.7v42.7c0,5.7-1.1,11.1-3.4,16.2
			c-2.3,5.1-5.1,9.4-8.8,13.4c-3.7,3.7-8,6.8-13.1,8.8c-5.1,2.3-10.5,3.4-16.2,3.4c-6.3,0-11.9-1.1-17.1-3.7s-9.7-5.7-13.7-10
			c-4,4.3-8.5,7.7-13.7,10c-5.1,2.6-10.8,3.7-17.1,3.7c-5.7,0-11.1-1.1-16.2-3.4c-5.1-2.3-9.4-5.1-13.1-8.8
			c-3.7-3.7-6.5-8.2-8.8-13.4c-2-5.1-3.1-10.5-3.1-16.2v-42.1v-0.9H388.5z"/>
		<path fill="#042EC6" d="M556.2,254.8c0-4,1.1-7.1,3.7-9.7c2.6-2.6,5.7-3.7,9.4-3.7c4,0,7.1,1.1,9.7,3.7c2.6,2.6,3.7,5.7,3.7,9.7
			c0,3.7-1.1,6.8-3.7,9.4c-2.6,2.6-5.7,3.7-9.7,3.7c-3.7,0-6.8-1.1-9.4-3.7S556.2,258.5,556.2,254.8z M558.5,296.6
			c0-3.1,1.1-5.7,3.1-7.7s4.6-3.1,7.7-3.1c3.1,0,5.7,1.1,7.7,3.1s3.1,4.6,3.1,7.7v69.7c0,3.1-1.1,5.7-3.1,7.7s-4.6,3.1-7.7,3.1
			s-5.7-1.1-7.7-3.1s-3.1-4.6-3.1-7.7V296.6z"/>
		<path fill="#042EC6" d="M618.2,249.1c2.8,0,5.4,1.1,7.4,3.1c2,2,3.1,4.6,3.1,7.4v32.4c3.1-2.8,7.4-5.4,12.8-7.7
			c5.4-2,10.5-3.1,15.9-3.1c6.8,0,13.4,1.4,19.3,4c6,2.6,11.4,6.3,15.6,10.5c4.6,4.6,8,9.7,10.5,15.6c2.6,6,4,12.5,4,19.3
			s-1.4,13.4-4,19.3s-6.3,11.4-10.5,15.6c-4.6,4.6-9.7,8-15.6,10.5c-6,2.6-12.5,4-19.3,4c-6.8,0-13.4-1.1-19.3-3.7
			c-6-2.6-11.4-6-15.9-10.5s-8-9.7-10.5-15.6s-3.7-12.5-3.7-19.6v-70.8c0-2.8,1.1-5.4,3.1-7.4C612.8,250.3,615.1,249.1,618.2,249.1z
			 M628.8,331.3c0,4,0.9,7.7,2.3,11.1c1.4,3.4,3.7,6.5,6.3,9.1c2.6,2.6,5.7,4.6,9.1,6.3c3.4,1.4,7.1,2.3,11.1,2.3
			c4,0,7.7-0.9,11.1-2.3c3.4-1.4,6.5-3.7,9.1-6.3c2.6-2.6,4.6-5.7,6.3-9.1c1.4-3.4,2.3-7.1,2.3-11.1c0-4-0.9-7.7-2.3-11.1
			c-1.4-3.4-3.7-6.5-6.3-9.1c-2.6-2.6-5.7-4.6-9.1-6.3c-3.4-1.4-7.1-2.3-11.1-2.3c-4,0-7.7,0.9-11.1,2.3c-3.4,1.4-6.5,3.7-9.1,6.3
			c-2.6,2.6-4.6,5.7-6.3,9.1C629.6,323.6,628.8,327.3,628.8,331.3z"/>
		<path fill="#042EC6" d="M726.6,254.8c0-4,1.1-7.1,3.7-9.7c2.6-2.6,5.7-3.7,9.4-3.7c4,0,7.1,1.1,9.7,3.7c2.6,2.6,3.7,5.7,3.7,9.7
			c0,3.7-1.1,6.8-3.7,9.4c-2.6,2.6-5.7,3.7-9.7,3.7c-3.7,0-6.8-1.1-9.4-3.7C727.7,261.6,726.6,258.5,726.6,254.8z M728.9,296.6
			c0-3.1,1.1-5.7,3.1-7.7c2-2,4.6-3.1,7.7-3.1c3.1,0,5.7,1.1,7.7,3.1c2,2,3.1,4.6,3.1,7.7v69.7c0,3.1-1.1,5.7-3.1,7.7
			c-2,2-4.6,3.1-7.7,3.1c-3.1,0-5.7-1.1-7.7-3.1c-2-2-3.1-4.6-3.1-7.7V296.6z"/>
	</g>
</g>
</svg>
