<?xml version="1.0" encoding="utf-8"?>
<!-- Generator: Adobe Illustrator 18.1.1, SVG Export Plug-In . SVG Version: 6.00 Build 0)  -->
<svg version="1.0" id="Capa_1" xmlns="http://www.w3.org/2000/svg" xmlns:xlink="http://www.w3.org/1999/xlink" x="0px" y="0px"
	 viewBox="86.1 0 619.5 612" enable-background="new 86.1 0 619.5 612" xml:space="preserve">
<circle fill="#3891EA" cx="395.8" cy="306" r="273.7"/>
<g>
	<g>
		<path fill="#FFFFFF" d="M326.7,368.5c-22.4,0-41.3,18.1-42.3,40.5s16.3,40.5,38.6,40.5s41.3-18.1,42.3-40.5
			S349.1,368.5,326.7,368.5z M324.3,423.4c-7.9,0-14.2-6.5-13.8-14.4c0.4-7.9,7.1-14.4,15-14.4c7.9,0,14.2,6.5,13.8,14.4
			C339.1,416.9,332.2,423.4,324.3,423.4z"/>
	</g>
	<path fill="#FFFFFF" d="M495.3,390.7c0-0.2,0-0.4-0.2-0.6c0,0.2,0,0.4-0.2,0.6c0,0.2,0,0.4,0.2,0.6
		C495.3,391.1,495.3,390.9,495.3,390.7z"/>
	<path fill="#FFFFFF" d="M604.1,386c0,0.2,0,0.2,0.2,0.4c0-0.2,0-0.6,0.2-0.8c0-0.2,0-0.2-0.2-0.4
		C604.3,385.4,604.3,385.6,604.1,386z"/>
	<g>
		<path fill="#FFFFFF" d="M551.8,365.4c-22.4,0-41.3,18.1-42.3,40.5s16.3,40.5,38.6,40.5c22.4,0,41.3-18.1,42.3-40.5
			C591.7,383.5,574.4,365.4,551.8,365.4z M549.4,420.3c-7.9,0-14.2-6.5-13.8-14.4c0.4-7.9,7.1-14.4,15-14.4s14.2,6.5,13.8,14.4
			C564.2,413.8,557.5,420.3,549.4,420.3z"/>
	</g>
	<path fill="#FFFFFF" d="M541.6,348.4c0.4,0,0.8-0.2,1.2-0.2C542.4,348.2,542,348.4,541.6,348.4L541.6,348.4z"/>
	<path fill="#FFFFFF" d="M604.1,386c0,0.2,0,0.2,0.2,0.4c0-0.2,0-0.6,0.2-0.8c0-0.2,0-0.2-0.2-0.4
		C604.3,385.4,604.3,385.6,604.1,386z"/>
	<path fill="#FFFFFF" d="M549.2,322.1c-4.1,0-8.1,0.4-12,1.4l-6.3-35l-217.6,37.6l0,0c-25.4,5.1-44.7,27.7-44.7,54.5
		c0,3.3,0.4,6.5,0.8,9.8c6.5-19.1,23-33.5,43.3-37.4c1.8-0.4,3.7-0.8,5.5-1v0.2c1.6-0.2,3.3-0.2,4.9-0.2c31.3,0,56.7,25.4,56.7,56.7
		c0,0.6,0,1.2,0,2l114.7-17.9c0.2-0.8,0-0.2,0,0c1.6-7.5,5.7-16.3,10.2-22.4c8.7-11.8,21.8-19.9,36.8-22.4l0,0
		c0.4,0,0.8-0.2,1.2-0.2c2.4-0.4,5.1-0.6,7.7-0.6c24.8,0,46,16.1,53.7,38.2c0-0.2,0-0.4,0.2-0.8c0,0.2,0,0.2,0.2,0.4
		c0.4-2.4,0.6-5.1,0.6-7.7C604.9,347.1,580.1,322.1,549.2,322.1z"/>
	<g>
		<path fill="#FFFFFF" d="M519.7,225.8c-1-5.3-4.3-10-9.1-12.4L417,164.6c-3.5-1.8-7.3-2.4-11.2-1.6l-18.5,3.5
			c-3.7,0.6-7.1,2.6-9.8,5.3l-64.7,69.9c29.7-3.5,59.8-10.2,78.1-15c-0.8-8.7,5.3-16.9,14.2-18.3c9.4-1.6,18.3,4.7,19.9,14
			c1.6,9.4-4.7,18.3-14,19.9c-6.5,1.2-12.8-1.6-16.7-6.5c-11.8,3-51.6,13.2-90.9,16.9c-2,3.5-2.8,7.7-2,11.6l10,52.9L529,279.4
			L519.7,225.8z"/>
	</g>
	<g>
		<path fill="#FFFFFF" d="M394.4,214.2c-41.7-14.4-154.9-50.6-193.6-28.1c-7.9,4.7-12.6,11.4-13.8,20.1c-1.6,11,1.4,19.9,8.9,26.6
			c11.6,10.4,33.3,13.8,58.2,13.8c54.3,0,123.6-17.1,136.2-20.3c0-0.4,0-0.8,0-1.2C390.6,220.9,392,217,394.4,214.2z M202.5,225.8
			c-5.1-4.5-6.9-10.4-5.9-18.1c0.8-5.7,3.9-10.2,9.1-13.2c7.5-4.5,18.5-6.3,31.7-6.3c42.5,0,106.5,19.1,142.3,31.1
			C331.4,230.8,228.9,249.3,202.5,225.8z"/>
	</g>
</g>
</svg>
