<?xml version="1.0" encoding="utf-8"?>
<!-- Generator: Adobe Illustrator 18.1.1, SVG Export Plug-In . SVG Version: 6.00 Build 0)  -->
<svg version="1.0" id="Capa_1" xmlns="http://www.w3.org/2000/svg" xmlns:xlink="http://www.w3.org/1999/xlink" x="0px" y="0px"
	 viewBox="86.1 0 619.5 612" enable-background="new 86.1 0 619.5 612" xml:space="preserve">
<circle fill="#3891EA" cx="395.8" cy="306" r="273.7"/>
<g>
	<g>
		<path fill="#FFFFFF" d="M179.3,288.2c0-3.5,1.3-6.6,3.8-8.8c2.5-2.5,5.5-3.8,8.8-3.8s6.6,1.3,8.8,3.8c2.5,2.5,3.8,5.5,3.8,8.8
			v51.2c0,3.3,0.5,6.6,1.8,9.3c1.3,3,3,5.5,5,7.6c2.3,2.3,4.8,4,7.6,5.3c2.8,1.3,6.1,2,9.3,2c3.3,0,6.3-0.8,9.3-2s5.5-3,7.8-5.3
			c2.3-2.3,3.8-4.8,5.3-7.6c1.3-2.8,2-6.1,2-9.3v-50.9c0-3.5,1.3-6.6,3.8-9.1c2.5-2.5,5.5-3.8,9.1-3.8c3.5,0,6.6,1.3,9.1,3.8
			c2.5,2.5,3.8,5.5,3.8,9.1v50.9c0,3.5,0.5,6.8,1.8,9.6c1.3,3,3,5.5,5,7.8c2.3,2.3,4.8,3.8,7.6,5c2.8,1.3,5.8,1.8,9.3,1.8
			c3.3,0,6.3-0.8,9.1-2c2.8-1.3,5.5-3,7.6-5.3c2.3-2.3,3.8-4.8,5.3-7.6c1.3-2.8,2-6.1,2-9.3v-50.9c0-3.5,1.3-6.6,3.5-9.1
			c2.3-2.5,5.3-3.8,8.8-3.8c3.5,0,6.6,1.3,9.1,3.8c2.5,2.5,3.8,5.5,3.8,9.1v50.7c0,6.8-1.3,13.1-3.8,19.2
			c-2.5,6.1-6.1,11.3-10.6,15.6c-4.3,4.5-9.6,8.1-15.6,10.6c-6.1,2.5-12.4,3.8-19.2,3.8c-7.3,0-14.1-1.5-20.4-4.3
			c-6.3-2.8-11.6-6.8-16.1-11.8c-4.5,5-10.1,9.1-16.1,11.8c-6.3,2.8-13.1,4.3-20.4,4.3c-6.8,0-13.1-1.3-19.2-3.8
			c-6.1-2.5-11.1-6.1-15.6-10.6c-4.3-4.5-7.8-9.8-10.3-15.6c-2.5-6.1-3.8-12.4-3.8-19.2v-49.9v-1H179.3z"/>
		<path fill="#FFFFFF" d="M378.4,239.1c0-4.5,1.5-8.6,4.5-11.6c3-3,6.8-4.5,11.1-4.5c4.5,0,8.6,1.5,11.6,4.5c3,3,4.5,6.8,4.5,11.6
			c0,4.3-1.5,8.1-4.5,11.1c-3,3-6.8,4.5-11.6,4.5c-4.3,0-8.1-1.5-11.1-4.5C380,247.1,378.4,243.3,378.4,239.1z M381.2,288.5
			c0-3.5,1.3-6.6,3.8-9.1c2.5-2.5,5.5-3.8,9.1-3.8c3.5,0,6.6,1.3,9.1,3.8c2.5,2.5,3.8,5.5,3.8,9.1v82.9c0,3.5-1.3,6.6-3.8,9.1
			c-2.5,2.5-5.5,3.8-9.1,3.8c-3.5,0-6.6-1.3-9.1-3.8c-2.5-2.5-3.8-5.5-3.8-9.1V288.5z"/>
		<path fill="#FFFFFF" d="M452.1,232.3c3.5,0,6.6,1.3,8.8,3.8c2.5,2.5,3.8,5.5,3.8,8.8v38.6c3.8-3.5,8.8-6.6,15.1-9.1
			c6.3-2.5,12.6-3.8,18.7-3.8c8.3,0,15.9,1.5,23.2,4.8c7.1,3,13.4,7.3,18.7,12.6c5.3,5.3,9.6,11.6,12.6,18.7
			c3,7.1,4.5,14.9,4.5,23.2c0,8.3-1.5,15.9-4.5,23.2c-3,7.1-7.3,13.4-12.6,18.7c-5.3,5.3-11.6,9.6-18.7,12.6
			c-7.1,3-14.9,4.8-23.2,4.8s-15.9-1.5-23.2-4.5c-7.1-3-13.4-7.3-18.7-12.4c-5.3-5.3-9.6-11.6-12.6-18.7c-3-7.1-4.5-14.9-4.5-23.4
			v-85c0-3.5,1.3-6.6,3.8-8.8C445.5,233.5,448.5,232.3,452.1,232.3z M464.7,329.8c0,4.5,1,9.1,2.8,13.1c1.8,4,4.3,7.8,7.3,10.8
			c3,3,6.6,5.5,10.8,7.3c4,1.8,8.6,2.8,13.1,2.8s9.1-1,13.1-2.8c4-1.8,7.8-4.3,10.8-7.3c3-3,5.5-6.6,7.3-10.8
			c1.8-4,2.8-8.6,2.8-13.1c0-4.5-1-9.1-2.8-13.1c-1.8-4-4.3-7.8-7.3-10.8c-3-3-6.6-5.5-10.8-7.3c-4-1.8-8.6-2.8-13.1-2.8
			s-9.1,1-13.1,2.8c-4,1.8-7.8,4.3-10.8,7.3c-3,3-5.5,6.6-7.3,10.8C465.4,320.7,464.7,325,464.7,329.8z"/>
		<path fill="#FFFFFF" d="M580.6,239.1c0-4.5,1.5-8.6,4.5-11.6c3-3,6.8-4.5,11.1-4.5c4.5,0,8.6,1.5,11.6,4.5s4.5,6.8,4.5,11.6
			c0,4.3-1.5,8.1-4.5,11.1c-3,3-6.8,4.5-11.6,4.5c-4.3,0-8.1-1.5-11.1-4.5C582.2,247.1,580.6,243.3,580.6,239.1z M583.7,288.5
			c0-3.5,1.3-6.6,3.8-9.1c2.5-2.5,5.5-3.8,9.1-3.8s6.6,1.3,9.1,3.8c2.5,2.5,3.8,5.5,3.8,9.1v82.9c0,3.5-1.3,6.6-3.8,9.1
			c-2.5,2.5-5.5,3.8-9.1,3.8s-6.6-1.3-9.1-3.8c-2.5-2.5-3.8-5.5-3.8-9.1V288.5z"/>
	</g>
</g>
</svg>
