<?xml version="1.0" encoding="utf-8"?>
<!-- Generator: Adobe Illustrator 18.1.1, SVG Export Plug-In . SVG Version: 6.00 Build 0)  -->
<svg version="1.1" id="Capa_1" xmlns="http://www.w3.org/2000/svg" xmlns:xlink="http://www.w3.org/1999/xlink" x="0px" y="0px"
	 viewBox="0 0 792 612" enable-background="new 0 0 792 612" xml:space="preserve">
<g>
	<path fill="#1E1E1E" d="M271.9,416.3c-37.1,0-68.9,29.9-70.8,67.6c-1.9,37.1,27,67.6,64.7,67.6c37.1,0,68.9-29.9,70.8-67.6
		C338.5,446.8,309,416.3,271.9,416.3z M267.7,507.9c-13.3,0-24-10.7-23.4-24c0.6-13.3,12-24,25.1-24c13.3,0,24,10.7,23.4,24
		C292.4,496.9,281.6,507.9,267.7,507.9z"/>
</g>
<path fill="#FFFFFF" d="M552.9,453.3c0-0.6,0-0.6,0-1.3C552.9,452.7,552.9,453.3,552.9,453.3c-0.6,0-0.6,0.6,0,0.6
	C552.9,454,552.9,454,552.9,453.3z"/>
<path fill="#FFFFFF" d="M734.5,445.6v0.6c0-0.6,0-0.6,0-1.3v-0.6C734.5,444.9,734.5,444.9,734.5,445.6z"/>
<g>
	<path fill="#1E1E1E" d="M647.5,411.4c-37.1,0-68.9,29.9-70.8,67.6c-1.9,37.1,27,67.2,64.7,67.2s68.9-29.9,70.8-67.6
		C713.4,441.3,684.6,411.4,647.5,411.4z M643.3,503.1c-13.3,0-24-10.7-23.4-24c0.6-13.3,12-24,25.1-24c13.3,0,24,10.7,23.4,24
		C667.9,492.3,656.6,503.1,643.3,503.1z"/>
</g>
<path fill="none" d="M630.2,382.6c0.6,0,1.3,0,1.9-0.6C631.3,382.6,630.9,382.6,630.2,382.6L630.2,382.6z"/>
<path fill="none" d="M734.5,445.6v0.6c0-0.6,0-0.6,0-1.3v-0.6C734.5,444.9,734.5,444.9,734.5,445.6z"/>
<path fill="#3891EA" d="M642.7,339.6c-7.2,0-13.7,0.6-20.4,2.3l-10.1-58.1l-362.5,62.3l0,0c-42.5,8.4-74.4,46.1-74.4,91
	c0,5.5,0.6,10.7,1.3,16.2c10.7-31.8,38.3-55.6,71.8-62.3c2.9-0.6,5.9-1.3,9.1-1.9v0.6c2.9,0,5.5-0.6,8.4-0.6
	c52,0,94.6,42.5,94.6,94.6c0,1.3,0,2.3,0,2.9l191-29.9c0-1.3,0-0.6,0,0c2.9-12.6,9.7-27,16.9-37.1c14.3-19.8,36.4-33.5,61.7-37.1
	l0,0c0.6,0,1.3,0,1.9,0c4.2-0.6,8.4-0.6,12.6-0.6c41.3,0,76.7,27,89.3,64c0-0.6,0-0.6,0-1.3v0.6c0.6-4.2,1.3-8.4,1.3-12.6
	C735.5,380.9,694.3,339.6,642.7,339.6z"/>
<g>
	<path fill="#3891EA" d="M593.6,178.9c-1.9-9.1-7.2-16.9-15-21.1L422.3,76.3c-5.9-2.9-12.6-4.2-18.5-2.9l-31.2,5.5
		c-5.9,1.3-12,4.2-16.2,9.1L249.2,204.8c49.7-5.9,100.1-17.3,130-25.1c-1.3-14.3,9.1-28.2,23.4-30.5c15.6-2.9,30.5,7.8,32.9,23.4
		c2.3,15.6-7.8,30.5-23.4,32.9c-10.7,1.9-21.5-2.3-27.6-10.7c-19.2,5.5-85.7,22.1-151,28.2c-3.6,5.9-4.8,12.6-3.6,19.8l16.9,88
		l362.9-63L593.6,178.9z"/>
</g>
<g>
	<path fill="#3891EA" d="M385.3,159.3c-69.5-24-258.2-84.5-322.9-46.8c-13.3,7.8-21.1,19.2-22.7,33.5c-2.3,17.9,2.3,32.9,15,44.2
		c19.2,17.3,55.6,23.4,97.1,23.4c90.4,0,206-28.9,227.1-34.1c0-0.6,0-1.3,0-1.9C378.5,170.7,381,163.9,385.3,159.3z M64.7,178.5
		c-8.4-7.8-11.4-17.3-9.7-29.9c1.3-9.7,6.5-16.9,15.6-22.1c12.6-7.2,31.2-10.1,52.7-10.1c70.8,0,177.4,31.8,237.2,52
		C279.7,187.3,109.1,217.9,64.7,178.5z"/>
</g>
</svg>
