<?xml version="1.0" encoding="utf-8"?>
<!-- Generator: Adobe Illustrator 18.1.1, SVG Export Plug-In . SVG Version: 6.00 Build 0)  -->
<svg version="1.0" id="Capa_1" xmlns="http://www.w3.org/2000/svg" xmlns:xlink="http://www.w3.org/1999/xlink" x="0px" y="0px"
	 viewBox="0 0 342.1 345.1" enable-background="new 0 0 342.1 345.1" xml:space="preserve">
<g>
	<g>
		<path fill="#3891EA" d="M83.4,270.8c0-1.9,0.7-3.5,2-4.9c1.4-1.4,3-2,4.9-2s3.5,0.7,4.9,2c1.4,1.4,2,3,2,4.9v28.1
			c0,1.8,0.3,3.6,1,5.1c0.7,1.6,1.6,3,2.8,4.2c1.2,1.2,2.6,2.2,4.2,2.9c1.6,0.7,3.3,1.1,5.1,1.1c1.7,0,3.4-0.4,5.1-1.1
			c1.6-0.7,3-1.7,4.2-2.9c1.2-1.2,2.1-2.6,2.9-4.2c0.7-1.6,1.1-3.3,1.1-5.1v-28c0-2,0.7-3.7,2-5c1.4-1.4,3-2,5-2c2,0,3.7,0.7,5,2
			c1.4,1.4,2,3,2,5v28c0,1.9,0.3,3.7,1,5.3c0.7,1.6,1.6,3.1,2.8,4.2c1.2,1.2,2.6,2.1,4.1,2.8c1.6,0.6,3.2,1,5.1,1
			c1.7,0,3.4-0.4,5-1.1c1.6-0.7,3-1.7,4.2-2.9c1.2-1.2,2.1-2.6,2.9-4.2c0.7-1.6,1.1-3.3,1.1-5.1v-28c0-2,0.7-3.7,2-5
			c1.3-1.4,2.9-2,4.9-2c2,0,3.6,0.7,5,2c1.3,1.4,2,3,2,5v27.9c0,3.7-0.7,7.3-2.1,10.6c-1.4,3.3-3.4,6.2-5.8,8.7
			c-2.4,2.5-5.3,4.4-8.6,5.8s-6.8,2.1-10.6,2.1c-4.1,0-7.8-0.8-11.2-2.4c-3.4-1.6-6.4-3.8-8.9-6.6c-2.5,2.8-5.5,5-8.9,6.6
			c-3.4,1.6-7.2,2.4-11.2,2.4c-3.7,0-7.3-0.7-10.6-2.1c-3.3-1.4-6.2-3.4-8.6-5.8c-2.4-2.5-4.3-5.4-5.7-8.7
			c-1.4-3.3-2.1-6.8-2.1-10.6v-27.5V270.8z"/>
		<path fill="#3891EA" d="M193,243.7c0-2.5,0.8-4.7,2.5-6.3c1.7-1.7,3.7-2.5,6.1-2.5c2.5,0,4.7,0.8,6.3,2.5c1.7,1.7,2.5,3.8,2.5,6.3
			c0,2.4-0.8,4.4-2.5,6.1c-1.7,1.7-3.8,2.5-6.3,2.5c-2.4,0-4.4-0.8-6.1-2.5C193.8,248.1,193,246.1,193,243.7z M194.5,270.9
			c0-2,0.7-3.7,2-5c1.4-1.4,3-2,5-2c2,0,3.7,0.7,5,2c1.4,1.4,2,3,2,5v45.6c0,2-0.7,3.7-2,5c-1.4,1.4-3,2-5,2c-2,0-3.7-0.7-5-2
			c-1.4-1.4-2-3-2-5V270.9z"/>
		<path fill="#3891EA" d="M233.4,240c1.9,0,3.5,0.7,4.9,2c1.4,1.4,2,3,2,4.9v21.2c2.1-1.9,4.8-3.6,8.3-5c3.5-1.4,6.9-2.1,10.3-2.1
			c4.5,0,8.8,0.9,12.7,2.6c3.9,1.7,7.4,4,10.3,6.9c2.9,2.9,5.2,6.3,6.9,10.3c1.7,3.9,2.6,8.2,2.6,12.7c0,4.5-0.9,8.8-2.6,12.7
			c-1.7,3.9-4,7.4-6.9,10.3c-2.9,2.9-6.3,5.2-10.3,6.9c-3.9,1.7-8.2,2.6-12.7,2.6c-4.5,0-8.8-0.8-12.7-2.5c-3.9-1.7-7.4-4-10.3-6.9
			c-2.9-2.9-5.3-6.3-6.9-10.3c-1.7-3.9-2.5-8.2-2.5-12.8v-46.7c0-1.9,0.7-3.5,2-4.9C229.9,240.6,231.5,240,233.4,240z M240.3,293.6
			c0,2.5,0.5,5,1.5,7.2c1,2.3,2.3,4.2,4,5.9c1.7,1.7,3.6,3,5.9,4c2.3,1,4.7,1.5,7.2,1.5c2.5,0,5-0.5,7.2-1.5c2.3-1,4.2-2.3,5.9-4
			c1.7-1.7,3-3.6,4-5.9c1-2.3,1.5-4.7,1.5-7.2c0-2.5-0.5-5-1.5-7.2s-2.3-4.2-4-5.9c-1.7-1.7-3.6-3-5.9-4c-2.3-1-4.7-1.5-7.2-1.5
			c-2.5,0-5,0.5-7.2,1.5c-2.3,1-4.2,2.3-5.9,4c-1.7,1.7-3,3.6-4,5.9C240.8,288.6,240.3,291,240.3,293.6z"/>
		<path fill="#3891EA" d="M304.2,243.7c0-2.5,0.8-4.7,2.5-6.3c1.7-1.7,3.7-2.5,6.1-2.5c2.5,0,4.7,0.8,6.3,2.5
			c1.7,1.7,2.5,3.8,2.5,6.3c0,2.4-0.8,4.4-2.5,6.1c-1.7,1.7-3.8,2.5-6.3,2.5c-2.4,0-4.4-0.8-6.1-2.5
			C305,248.1,304.2,246.1,304.2,243.7z M305.8,270.9c0-2,0.7-3.7,2-5c1.4-1.4,3-2,5-2c2,0,3.7,0.7,5,2c1.4,1.4,2,3,2,5v45.6
			c0,2-0.7,3.7-2,5c-1.4,1.4-3,2-5,2c-2,0-3.7-0.7-5-2c-1.4-1.4-2-3-2-5V270.9z"/>
	</g>
</g>
<g>
	<g>
		<path d="M122.9,165.8c-15.3,0-28.2,12.4-28.9,27.6s11.1,27.6,26.4,27.6c15.3,0,28.2-12.4,28.9-27.6
			C150,178.2,138.2,165.8,122.9,165.8z M121.2,203.3c-5.5,0-9.7-4.4-9.5-9.9c0.2-5.5,4.9-9.9,10.3-9.9c5.5,0,9.7,4.4,9.5,9.9
			C131.3,198.9,126.7,203.3,121.2,203.3z"/>
	</g>
	<path fill="#FFFFFF" d="M237.9,181c0-0.1-0.1-0.3-0.1-0.4c0,0.1-0.1,0.3-0.1,0.4c0,0.1,0.1,0.3,0.1,0.4
		C237.8,181.2,237.9,181.1,237.9,181z"/>
	<path fill="#FFFFFF" d="M312.1,177.7c0,0.1,0.1,0.2,0.1,0.3c0-0.2,0-0.4,0.1-0.5c0-0.1,0-0.2-0.1-0.2
		C312.2,177.4,312.1,177.6,312.1,177.7z"/>
	<g>
		<path d="M276.5,163.7c-15.3,0-28.2,12.4-28.9,27.6S258.8,219,274,219s28.2-12.4,28.9-27.6S291.8,163.7,276.5,163.7z M274.8,201.3
			c-5.5,0-9.7-4.4-9.5-9.9s4.9-9.9,10.3-9.9c5.5,0,9.7,4.4,9.5,9.9S280.3,201.3,274.8,201.3z"/>
	</g>
	<path fill="none" d="M269.5,152.1c0.3,0,0.5-0.1,0.8-0.1C270,152,269.8,152.1,269.5,152.1L269.5,152.1z"/>
	<path fill="none" d="M312.1,177.7c0,0.1,0.1,0.2,0.1,0.3c0-0.2,0-0.4,0.1-0.5c0-0.1,0-0.2-0.1-0.2
		C312.2,177.4,312.1,177.6,312.1,177.7z"/>
	<path fill="#3891EA" d="M274.7,134.2c-2.8,0-5.6,0.3-8.2,0.9l-4.3-23.8L113.8,137l0,0c-17.4,3.5-30.5,18.8-30.5,37.2
		c0,2.3,0.2,4.5,0.6,6.6c4.5-13,15.7-22.9,29.5-25.5c1.2-0.3,2.5-0.5,3.7-0.6l0,0.1c1.1-0.1,2.2-0.2,3.4-0.2
		c21.4,0,38.7,17.3,38.7,38.7c0,0.4,0,0.9,0,1.3l78.2-12.2c0.1-0.5,0-0.1,0,0c1.1-5.2,3.9-11.1,6.9-15.2c5.9-8,14.9-13.6,25.1-15.2
		l0,0c0.3,0,0.5-0.1,0.8-0.1c1.7-0.2,3.5-0.4,5.2-0.4c17,0,31.4,10.9,36.6,26.1c0-0.2,0.1-0.3,0.1-0.5c0,0.1,0,0.2,0.1,0.2
		c0.2-1.7,0.4-3.4,0.4-5.2C312.7,151.3,295.6,134.2,274.7,134.2z"/>
	<g>
		<path fill="#3891EA" d="M254.5,68.6c-0.6-3.7-2.9-6.8-6.2-8.5l-63.8-33.2c-2.3-1.2-5-1.6-7.6-1.2L164.1,28
			c-2.5,0.5-4.9,1.7-6.6,3.6l-44.1,47.7c20.2-2.4,40.8-7,53.3-10.3c-0.5-6,3.6-11.5,9.7-12.5c6.4-1.1,12.4,3.2,13.6,9.5
			s-3.2,12.4-9.5,13.6c-4.5,0.8-8.8-1.1-11.3-4.4c-8,2.1-35.2,9-61.9,11.5c-1.4,2.4-1.9,5.2-1.4,8l6.8,36.1L261,104.9L254.5,68.6z"
			/>
	</g>
	<g>
		<path fill="#3891EA" d="M169.1,60.5C140.7,50.6,63.4,26,37.1,41.5c-5.4,3.2-8.6,7.8-9.4,13.7c-1.1,7.4,1,13.5,6.1,18.1
			c7.9,7,22.7,9.5,39.7,9.5c37,0,84.4-11.7,93-13.9c0-0.3,0-0.5,0-0.8C166.4,65.2,167.4,62.6,169.1,60.5z M38.1,68.4
			c-3.5-3.1-4.8-7.1-4-12.3c0.6-3.9,2.6-6.9,6.3-9c5.1-3,12.7-4.3,21.6-4.3c29,0,72.7,13.1,97.1,21.2C126,72,56.2,84.6,38.1,68.4z"
			/>
	</g>
</g>
</svg>
