<?xml version="1.0" encoding="utf-8"?>
<!-- Generator: Adobe Illustrator 18.1.1, SVG Export Plug-In . SVG Version: 6.00 Build 0)  -->
<svg version="1.0" id="Capa_1" xmlns="http://www.w3.org/2000/svg" xmlns:xlink="http://www.w3.org/1999/xlink" x="0px" y="0px"
	 viewBox="0 0 128 128" enable-background="new 0 0 128 128" xml:space="preserve">
<g>
	<path fill="#FFFFFF" d="M45.6,82.3c-6,0-11,4.8-11.3,10.8s4.4,10.8,10.3,10.8s11-4.8,11.3-10.8S51.6,82.3,45.6,82.3z M44.9,97
		c-2.1,0-3.8-1.7-3.7-3.9c0.1-2.1,1.9-3.9,4-3.9s3.8,1.7,3.7,3.9C48.9,95.3,47.1,97,44.9,97z"/>
	<path fill="#FFFFFF" d="M105.7,81.5c-6,0-11,4.8-11.3,10.8c-0.3,6,4.4,10.8,10.3,10.8s11-4.8,11.3-10.8
		C116.3,86.3,111.7,81.5,105.7,81.5z M105,96.2c-2.1,0-3.8-1.7-3.7-3.9c0.1-2.1,1.9-3.9,4-3.9c2.1,0,3.8,1.7,3.7,3.9
		C109,94.5,107.2,96.2,105,96.2z"/>
	<path fill="#FFFFFF" d="M105,70c-1.1,0-2.2,0.1-3.2,0.4l-1.7-9.3L42,71l0,0c-6.8,1.4-11.9,7.4-11.9,14.6c0,0.9,0.1,1.7,0.2,2.6
		c1.8-5.1,6.1-9,11.5-10c0.5-0.1,1-0.2,1.5-0.3l0,0.1c0.4,0,0.9-0.1,1.3-0.1c8.4,0,15.2,6.8,15.2,15.2c0,0.2,0,0.3,0,0.5l30.6-4.8
		c0-0.2,0.1-0.4,0.1-0.5c0,0,0,0,0,0.1c0,0,0-0.1,0-0.1c0,0,0,0,0-0.1c0.5-1.8,1.5-3.8,2.5-5.3c2.3-3.1,5.8-5.3,9.8-6
		c0.1,0,0.2,0,0.3,0c0.7-0.1,1.4-0.1,2-0.1c6.6,0,12.3,4.3,14.3,10.2c0,0,0,0.1,0,0.1c0-0.1,0-0.1,0-0.2c0.1-0.7,0.1-1.3,0.1-2
		C119.8,76.6,113.2,70,105,70z"/>
	<path fill="#FFFFFF" d="M62.8,44.4c-0.2-2.3,1.4-4.5,3.8-4.9c2.5-0.4,4.9,1.2,5.3,3.7c0.4,2.5-1.2,4.9-3.7,5.3
		c-1.7,0.3-3.4-0.4-4.4-1.7c-3.1,0.8-13.8,3.5-24.2,4.5c-0.5,0.9-0.7,2-0.5,3.1l2.7,14.1l58.1-10l-2.6-14.2
		c-0.2-1.4-1.2-2.7-2.4-3.3l-25-13c-0.9-0.5-2-0.6-3-0.5l-4.9,0.9c-1,0.2-1.9,0.7-2.6,1.4l-7,7.6c-13.7-4-32.4-8.3-40.1-3.7
		c-2.1,1.2-3.3,3-3.7,5.4c-0.4,2.9,0.4,5.3,2.4,7.1c3.1,2.7,8.9,3.7,15.5,3.7c6.4,0,13.6-0.9,19.9-2C52.6,46.9,58.8,45.5,62.8,44.4z
		 M12.4,44.2c-1.4-1.2-1.9-2.8-1.6-4.8c0.2-1.5,1-2.7,2.5-3.5c2-1.2,5-1.7,8.5-1.7c8.1,0,19.2,2.6,28.4,5.3l-5.6,6
		C31.8,47.6,17.3,48.6,12.4,44.2z"/>
</g>
</svg>
